<svg id="Layer_1" data-name="Layer 1" xmlns="http://www.w3.org/2000/svg" viewBox="0 0 90 90"><defs><style>.cls-1{fill:#fefefe;}.cls-2{fill:#2A1B16;}.cls-3{fill:#faf8f4;}</style></defs><path class="cls-1" d="M91.08,45q0,22.82,0,45.62c0,.91-.08,1.22-1.16,1.22q-45.36-.06-90.74,0c-.94,0-1.09-.23-1.09-1.12q0-45.7,0-91.41c0-1.14.41-1.12,1.25-1.12q45.29,0,90.58,0c1,0,1.17.24,1.17,1.2C91.06,14.58,91.08,29.78,91.08,45ZM26.83,80.67h36c-.38-.76-1-.7-1.49-.77-3.05-.46-6.1-.94-9.17-1.32-.89-.12-1.18-.45-1.29-1.33a186.77,186.77,0,0,1-1.21-19.33c-.17-13.48-.42-27,.88-40.42.12-1.25.46-1.83,1.74-2.13a54.83,54.83,0,0,1,20.38-.93,1.7,1.7,0,0,1,1.61,1.36c.92,3.07,1.91,6.11,2.87,9.17.1.31.15.73.54.72.61,0,.42-.57.4-.89-.29-4.46-.63-8.92-.9-13.38-.06-1.05-.67-1-1.34-.9-2.54.19-5.07.58-7.59.56-18.18-.17-36.38.84-54.54-.57-1-.08-1.32.21-1.38,1.23-.24,4.36-.59,8.7-.87,13.05,0,.39-.21.88.28,1.22.62-.15.61-.71.75-1.15.95-3,1.93-6,2.83-9a1.31,1.31,0,0,1,1.18-1.12,56.87,56.87,0,0,1,21.4.74c.79.17,1,.6,1.11,1.37a118.17,118.17,0,0,1,.85,13.54c.1,10.56.31,21.12-.15,31.68-.22,5.07-.56,10.14-1.06,15.19-.08.9-.4,1.22-1.29,1.33-2.35.28-4.71.59-7,1C29.27,79.85,28,79.61,26.83,80.67Z"/><path class="cls-2" d="M26.83,80.67c1.21-1.06,2.44-.82,3.5-1,2.33-.46,4.69-.77,7-1,.89-.11,1.21-.43,1.29-1.33.5-5,.84-10.12,1.06-15.19.46-10.56.25-21.12.15-31.68A118.17,118.17,0,0,0,39,16.84c-.1-.77-.32-1.2-1.11-1.37a56.87,56.87,0,0,0-21.4-.74,1.31,1.31,0,0,0-1.18,1.12c-.9,3-1.88,6-2.83,9-.14.44-.13,1-.75,1.15-.49-.34-.31-.83-.28-1.22.28-4.35.63-8.69.87-13,.06-1,.36-1.31,1.38-1.23,18.16,1.41,36.36.4,54.54.57,2.52,0,5-.37,7.59-.56.67-.06,1.28-.15,1.34.9.27,4.46.61,8.92.9,13.38,0,.32.21.87-.4.89-.39,0-.44-.41-.54-.72-1-3.06-2-6.1-2.87-9.17a1.7,1.7,0,0,0-1.61-1.36,54.83,54.83,0,0,0-20.38.93c-1.28.3-1.62.88-1.74,2.13-1.3,13.45-1,26.94-.88,40.42a186.77,186.77,0,0,0,1.21,19.33c.11.88.4,1.21,1.29,1.33,3.07.38,6.12.86,9.17,1.32.51.07,1.11,0,1.49.77ZM41.36,46q0,15.59,0,31.17c0,1.18.13,1.82,1.59,1.76,1.26,0,1.68-.32,1.68-1.66q-.06-31.26,0-62.52c0-1.31-.37-1.66-1.67-1.69s-1.61.56-1.6,1.76Q41.38,30.39,41.36,46Z"/><path class="cls-3" d="M41.36,46q0-15.58,0-31.18c0-1.2.17-1.79,1.6-1.76s1.67.38,1.67,1.69q-.06,31.26,0,62.52c0,1.34-.42,1.62-1.68,1.66-1.46.06-1.59-.58-1.59-1.76Q41.38,61.57,41.36,46Z"/></svg>